<?xml version="1.0" standalone="no"?><!DOCTYPE svg PUBLIC "-//W3C//DTD SVG 1.1//EN" "http://www.w3.org/Graphics/SVG/1.1/DTD/svg11.dtd"><svg t="1623054651736" class="icon" viewBox="0 0 1024 1024" version="1.1" xmlns="http://www.w3.org/2000/svg" p-id="3821" xmlns:xlink="http://www.w3.org/1999/xlink" width="200" height="200"><defs><style type="text/css"></style></defs><path d="M670.72 102.4h143.36c59.392 0 107.52 48.128 107.52 107.52v143.36A107.52 107.52 0 0 1 814.08 460.8h-143.36A107.52 107.52 0 0 1 563.2 353.28V209.92c0-59.392 48.128-107.52 107.52-107.52" fill="#00D9FF" p-id="3822"></path><path d="M353.28 563.2c59.392 0 107.52 48.128 107.52 107.52v143.36A107.52 107.52 0 0 1 353.28 921.6H209.92A107.52 107.52 0 0 1 102.4 814.08v-143.36c0-59.392 48.128-107.52 107.52-107.52h143.36z m460.8 0c59.392 0 107.52 48.128 107.52 107.52v143.36a107.52 107.52 0 0 1-107.52 107.52h-143.36a107.52 107.52 0 0 1-107.52-107.52v-143.36c0-59.392 48.128-107.52 107.52-107.52h143.36z m-460.8-460.8C412.672 102.4 460.8 150.528 460.8 209.92v143.36A107.52 107.52 0 0 1 353.28 460.8H209.92A107.52 107.52 0 0 1 102.4 353.28V209.92C102.4 150.528 150.528 102.4 209.92 102.4h143.36z" fill="#0073FA" p-id="3823"></path></svg>