<?xml version="1.0" standalone="no"?><!DOCTYPE svg PUBLIC "-//W3C//DTD SVG 1.1//EN" "http://www.w3.org/Graphics/SVG/1.1/DTD/svg11.dtd"><svg t="1623054715108" class="icon" viewBox="0 0 1024 1024" version="1.1" xmlns="http://www.w3.org/2000/svg" p-id="1322" xmlns:xlink="http://www.w3.org/1999/xlink" width="200" height="200"><defs><style type="text/css"></style></defs><path d="M474.9824 563.2l61.184 5.2224c22.2208 2.2016 44.3392 5.632 66.2528 10.0864l11.9296 2.6624V870.4H128A76.8 76.8 0 0 1 51.2 793.6V716.8a110.6432 110.6432 0 0 1 9.8816-49.2544c20.4288-47.3088 75.3152-70.2464 124.1088-81.92l9.6256-2.2016a656.2816 656.2816 0 0 1 88.1664-15.0016L344.1664 563.2h130.816zM409.6512 102.4a204.8 204.8 0 1 1 0 409.6 204.8 204.8 0 0 1 0-409.6z" fill="#0073FA" p-id="1323"></path><path d="M870.4 768a51.2 51.2 0 0 1 0 102.4h-153.6a51.2 51.2 0 0 1 0-102.4h153.6z m0-153.6a51.2 51.2 0 0 1 0 102.4h-153.6a51.2 51.2 0 0 1 0-102.4h153.6z m0-153.6a51.2 51.2 0 0 1 0 102.4h-153.6a51.2 51.2 0 0 1 0-102.4h153.6z" fill="#00D9FF" p-id="1324"></path></svg>