<?xml version="1.0" standalone="no"?><!DOCTYPE svg PUBLIC "-//W3C//DTD SVG 1.1//EN" "http://www.w3.org/Graphics/SVG/1.1/DTD/svg11.dtd"><svg t="1623054682471" class="icon" viewBox="0 0 1024 1024" version="1.1" xmlns="http://www.w3.org/2000/svg" p-id="1179" xmlns:xlink="http://www.w3.org/1999/xlink" width="200" height="200"><defs><style type="text/css"></style></defs><path d="M819.2 102.4a51.2 51.2 0 0 1 51.2 51.2v217.6512L665.6 217.6V153.6a51.2 51.2 0 0 1 51.2-51.2h102.4z" fill="#00D9FF" p-id="1180"></path><path d="M409.6 870.4v-307.2h204.8v307.2a51.2 51.2 0 0 0 51.2 51.2h179.2a76.8 76.8 0 0 0 76.8-76.8V448a76.8 76.8 0 0 0-30.72-61.44l-348.16-261.12a51.2 51.2 0 0 0-61.44 0l-348.16 261.12a76.8 76.8 0 0 0-30.72 61.44v396.8A76.8 76.8 0 0 0 179.2 921.6H358.4a51.2 51.2 0 0 0 51.2-51.2z" fill="#0073FA" p-id="1181"></path></svg>