<?xml version="1.0" standalone="no"?><!DOCTYPE svg PUBLIC "-//W3C//DTD SVG 1.1//EN" "http://www.w3.org/Graphics/SVG/1.1/DTD/svg11.dtd"><svg t="1623054810866" class="icon" viewBox="0 0 1024 1024" version="1.1" xmlns="http://www.w3.org/2000/svg" p-id="7721" xmlns:xlink="http://www.w3.org/1999/xlink" width="200" height="200"><defs><style type="text/css"></style></defs><path d="M149.333333 384h725.333334v426.666667H149.333333z" fill="#B0BEC5" p-id="7722"></path><path d="M149.333333 810.666667h725.333334v85.333333H149.333333z" fill="#90A4AE" p-id="7723"></path><path d="M232.106667 512h256v256h-256z" fill="#FFFFFF" p-id="7724"></path><path d="M256 533.333333h213.333333v213.333334H256z" fill="#03A9F4" p-id="7725"></path><path d="M554.666667 512h256v384H554.666667z" fill="#F57C00" p-id="7726"></path><path d="M576 533.333333h213.333333v362.666667H576z" fill="#F79129" p-id="7727"></path><path d="M746.666667 727.04m-21.333334 0a21.333333 21.333333 0 1 0 42.666667 0 21.333333 21.333333 0 1 0-42.666667 0Z" fill="#FCB75E" p-id="7728"></path><path d="M149.333333 507.093333a106.666667 106.666667 0 0 0 32 4.906667 111.36 111.36 0 0 0 76.586667-31.146667 128 128 0 0 0 168.746667-1.706666 128 128 0 0 0 170.666666 0 128 128 0 0 0 168.746667 1.706666A111.36 111.36 0 0 0 842.666667 512a106.666667 106.666667 0 0 0 32-4.906667V384H149.333333z" fill="#90A4AE" p-id="7729"></path><path d="M426.666667 384a85.333333 85.333333 0 0 0 170.666666 0z" fill="#F44336" p-id="7730"></path><path d="M426.666667 213.333333h170.666666v170.666667h-170.666666z" fill="#F77268" p-id="7731"></path><path d="M768 384a80.64 80.64 0 0 0 74.666667 85.333333 80.64 80.64 0 0 0 74.666666-85.333333z" fill="#F44336" p-id="7732"></path><path d="M746.666667 213.333333l21.333333 170.666667h149.333333l-42.666666-170.666667h-128z" fill="#F77268" p-id="7733"></path><path d="M597.333333 213.333333v170.666667h170.666667l-21.333333-170.666667h-149.333334z" fill="#FFE082" p-id="7734"></path><path d="M597.333333 384a85.333333 85.333333 0 0 0 170.666667 0z" fill="#FFC107" p-id="7735"></path><path d="M256 384a80.64 80.64 0 0 1-74.666667 85.333333A80.64 80.64 0 0 1 106.666667 384z" fill="#F44336" p-id="7736"></path><path d="M277.333333 213.333333l-21.333333 170.666667H106.666667l42.666666-170.666667h128z" fill="#F77268" p-id="7737"></path><path d="M426.666667 213.333333v170.666667h-170.666667l21.333333-170.666667h149.333334z" fill="#FFE082" p-id="7738"></path><path d="M426.666667 384a85.333333 85.333333 0 0 1-170.666667 0z" fill="#FFC107" p-id="7739"></path><path d="M192 128h640a42.666667 42.666667 0 0 1 42.666667 42.666667v42.666666H149.333333V170.666667a42.666667 42.666667 0 0 1 42.666667-42.666667z" fill="#F44336" p-id="7740"></path></svg>